<svg id="Camada_1" data-name="Camada 1" xmlns="http://www.w3.org/2000/svg" viewBox="0 0 805 178"><defs><style>.cls-1{font-size:51.01px;font-family:ArialRoundedMTBold, Arial Rounded MT Bold;}.cls-1,.cls-3{fill:#ea563d;}.cls-2{fill:#2300f8;}.cls-3{stroke:#ea563d;stroke-miterlimit:10;stroke-width:3px;}</style></defs><title>Prancheta 214</title><text class="cls-1" transform="translate(417.93 105.66)">GeoGuesser</text><path class="cls-2" d="M94.83,68.07h3c2.05,0,4.1,0,6.15,0a1.06,1.06,0,0,1,1.13.67c3.86,7.87,7.76,15.73,11.62,23.6a1.28,1.28,0,0,1,.09,1c-1.71,3.31-3.45,6.6-5.19,9.9a3.11,3.11,0,0,1-.24.28Z"/><path class="cls-2" d="M91.77,103.44,75.22,68.07h2.42c2.26,0,4.53,0,6.79,0a1,1,0,0,1,1.06.64c3.88,7.89,7.79,15.77,11.67,23.67a1.29,1.29,0,0,1,0,1c-1.71,3.31-3.46,6.6-5.2,9.9C92,103.31,91.91,103.34,91.77,103.44Z"/><path class="cls-2" d="M191.67,68.07H200v35.51h-8.29Z"/><path class="cls-2" d="M165.69,68h8.23v35.56h-8.23Z"/><path class="cls-2" d="M142.9,103.6h-8.26V68.07h8.26Z"/><path class="cls-2" d="M326.74,100.51a13.52,13.52,0,0,1-10.49,3.81c-6-.42-10.43-3.2-12.69-8.88-3.05-7.67,3-16.87,11.32-17.12-.24.33-.42.58-.61.82-3.24,4.21-4.18,13,.68,17.83a12.83,12.83,0,0,0,11,3.65Z"/><path class="cls-2" d="M248.67,103.57H240V81.93l8.69-3Z"/><path class="cls-2" d="M287.39,83.32l9.91-5.51v25.77H289v-1c0-4.47,0-8.94,0-13.41a11.79,11.79,0,0,0-.35-3.08A18.85,18.85,0,0,0,287.39,83.32Z"/><path class="cls-2" d="M264.8,103.58h-8.57V78.52a19.31,19.31,0,0,1,2.17.83,11.61,11.61,0,0,1,6.43,10.13c.21,4.58.06,9.18.06,13.77A2.14,2.14,0,0,1,264.8,103.58Z"/><path class="cls-2" d="M272.48,78.44a23.59,23.59,0,0,1,2.89,1.32,11.68,11.68,0,0,1,5.69,9.91c.14,4.43,0,8.87,0,13.3,0,.18,0,.36-.05.59h-8.57Z"/><path class="cls-2" d="M222.58,78.63c4.79,0,8.41,2,10.71,6A12.46,12.46,0,0,1,233,98.16c-2.25,3.61-6.62,5.81-10.34,5.37,3-3.64,3.59-8,3.59-12.42S225.61,82.39,222.58,78.63Z"/><path class="cls-2" d="M217.06,103.61c-4.49,0-8-1.73-10.34-5.38a12.37,12.37,0,0,1-.45-13.47c2.28-4.11,5.92-6.09,10.79-6.13-3,3.72-3.64,8.05-3.65,12.47S214,99.88,217.06,103.61Z"/><path class="cls-2" d="M318.77,78.34c6.44.08,12.58,7,12,13.37h-9C322.43,86.91,321.93,82.38,318.77,78.34Z"/><path class="cls-2" d="M298,69.93a4.51,4.51,0,1,1-4.5-4.5A4.54,4.54,0,0,1,298,69.93Z"/><path class="cls-2" d="M115.06,68h13.4l-6,9.58A14.37,14.37,0,0,0,115.06,68Z"/><path class="cls-2" d="M160.53,68V80.55c-2.43-5-5.13-9.42-9.8-12.51Z"/><path class="cls-2" d="M187.07,84.56a3.91,3.91,0,0,1-4,3.94,4,4,0,0,1-3.95-4,4,4,0,0,1,4-4A4,4,0,0,1,187.07,84.56Z"/><path class="cls-2" d="M147.5,85.08a16.89,16.89,0,0,0,6.4-7V91.35A16,16,0,0,0,147.5,85.08Z"/><path class="cls-3" d="M373.66,59A22.13,22.13,0,0,1,394.3,73.26a21.63,21.63,0,0,1,1.43,7.79,18.72,18.72,0,0,1-1.3,6.27,61.48,61.48,0,0,1-5.35,10.78,170.24,170.24,0,0,1-14,19.61,1.57,1.57,0,0,1-2.67.11A161,161,0,0,1,357,96a53.24,53.24,0,0,1-4.39-9.44,17.48,17.48,0,0,1-.87-8.2,21.78,21.78,0,0,1,10-15.79A21.14,21.14,0,0,1,373.66,59Zm0,55.47c.17-.2.29-.33.4-.47A182,182,0,0,0,385,98.86a69.54,69.54,0,0,0,6.18-11.5A16.65,16.65,0,0,0,389.72,71,18.6,18.6,0,0,0,376.9,62.4a18.1,18.1,0,0,0-9.09.64,18.59,18.59,0,0,0-11.47,10.38,16.38,16.38,0,0,0-.51,13,65.57,65.57,0,0,0,5.45,10.69,172.13,172.13,0,0,0,11,15.58Z"/><path class="cls-3" d="M374,88.53a9.17,9.17,0,1,1,9.16-9.18A9.18,9.18,0,0,1,374,88.53Zm6-9.19a6,6,0,1,0-6,6.09A6.05,6.05,0,0,0,380,79.34Z"/></svg>